<svg width="24" height="22" viewBox="0 0 24 22" xmlns="http://www.w3.org/2000/svg">
<path d="M23.75 19.75H2.25V0.25C2.25 0.1125 2.1375 0 2 0H0.25C0.1125 0 0 0.1125 0 0.25V21.75C0 21.8875 0.1125 22 0.25 22H23.75C23.8875 22 24 21.8875 24 21.75V20C24 19.8625 23.8875 19.75 23.75 19.75ZM5 17.25H6.75C6.8875 17.25 7 17.1375 7 17V12.5C7 12.3625 6.8875 12.25 6.75 12.25H5C4.8625 12.25 4.75 12.3625 4.75 12.5V17C4.75 17.1375 4.8625 17.25 5 17.25ZM9.75 17.25H11.5C11.6375 17.25 11.75 17.1375 11.75 17V7C11.75 6.8625 11.6375 6.75 11.5 6.75H9.75C9.6125 6.75 9.5 6.8625 9.5 7V17C9.5 17.1375 9.6125 17.25 9.75 17.25ZM14.5 17.25H16.25C16.3875 17.25 16.5 17.1375 16.5 17V9.4375C16.5 9.3 16.3875 9.1875 16.25 9.1875H14.5C14.3625 9.1875 14.25 9.3 14.25 9.4375V17C14.25 17.1375 14.3625 17.25 14.5 17.25ZM19.25 17.25H21C21.1375 17.25 21.25 17.1375 21.25 17V4.5C21.25 4.3625 21.1375 4.25 21 4.25H19.25C19.1125 4.25 19 4.3625 19 4.5V17C19 17.1375 19.1125 17.25 19.25 17.25Z" />
</svg>
