<svg width="19" height="20" viewBox="0 0 20 24" xmlns="http://www.w3.org/2000/svg">
<path d="M2.00305 20H16.0031C17.1061 20 18.0031 19.103 18.0031 18V9.00002C18.0032 8.86868 17.9774 8.73861 17.9271 8.61728C17.8768 8.49596 17.803 8.38576 17.7101 8.29302L9.71005 0.293018C9.61726 0.200072 9.50706 0.126334 9.38575 0.0760237C9.26443 0.025713 9.13439 -0.000183105 9.00305 -0.000183105C8.87172 -0.000183105 8.74167 0.025713 8.62036 0.0760237C8.49904 0.126334 8.38884 0.200072 8.29605 0.293018L0.296052 8.29302C0.203054 8.38576 0.129296 8.49596 0.0790134 8.61728C0.0287313 8.73861 0.00291662 8.86868 0.00305229 9.00002V18C0.00305229 19.103 0.900052 20 2.00305 20ZM7.00305 18V13H11.0031V18H7.00305ZM2.00305 9.41402L9.00305 2.41402L16.0031 9.41402L16.0041 18H13.0031V13C13.0031 11.897 12.1061 11 11.0031 11H7.00305C5.90005 11 5.00305 11.897 5.00305 13V18H2.00305V9.41402Z" />
</svg>
