<svg width="20" height="20" viewBox="0 0 10 2" xmlns="http://www.w3.org/2000/svg">
<path d="M1.66667 2.33333C2.311 2.33333 2.83333 1.811 2.83333 1.16667C2.83333 0.522335 2.311 0 1.66667 0C1.02233 0 0.5 0.522335 0.5 1.16667C0.5 1.811 1.02233 2.33333 1.66667 2.33333Z"  />
<path d="M1.66667 8.16665C2.311 8.16665 2.83333 7.64431 2.83333 6.99998C2.83333 6.35565 2.311 5.83331 1.66667 5.83331C1.02233 5.83331 0.5 6.35565 0.5 6.99998C0.5 7.64431 1.02233 8.16665 1.66667 8.16665Z"  />
<path d="M1.66667 14C2.311 14 2.83333 13.4777 2.83333 12.8334C2.83333 12.189 2.311 11.6667 1.66667 11.6667C1.02233 11.6667 0.5 12.189 0.5 12.8334C0.5 13.4777 1.02233 14 1.66667 14Z"  />
<path d="M20.4033 5.83331H6.26329C5.65762 5.83331 5.16663 6.32431 5.16663 6.92998V7.06998C5.16663 7.67565 5.65762 8.16665 6.26329 8.16665H20.4033C21.009 8.16665 21.5 7.67565 21.5 7.06998V6.92998C21.5 6.32431 21.009 5.83331 20.4033 5.83331Z"  />
<path d="M20.4033 11.6667H6.26329C5.65762 11.6667 5.16663 12.1577 5.16663 12.7634V12.9034C5.16663 13.509 5.65762 14 6.26329 14H20.4033C21.009 14 21.5 13.509 21.5 12.9034V12.7634C21.5 12.1577 21.009 11.6667 20.4033 11.6667Z"  />
<path d="M20.4033 0H6.26329C5.65762 0 5.16663 0.490995 5.16663 1.09667V1.23667C5.16663 1.84234 5.65762 2.33333 6.26329 2.33333H20.4033C21.009 2.33333 21.5 1.84234 21.5 1.23667V1.09667C21.5 0.490995 21.009 0 20.4033 0Z"  />
</svg>
