<svg width="512" height="512" viewBox="0 0 512 512"  xmlns="http://www.w3.org/2000/svg">
<path d="M139.315 394.301C141.708 403.204 145.492 409.257 150.668 412.461C155.834 415.601 162.683 416.437 171.216 414.967C180.648 413.342 187.105 409.026 190.588 402.018C194.061 394.945 195.094 385.221 193.689 372.845L149.419 380.471L145.391 357.085L189.564 349.476C186.64 337.097 182.22 328.313 176.305 323.122C170.443 317.855 163.021 315.996 154.038 317.543C145.313 319.046 139.128 322.258 135.483 327.18C131.828 332.038 130.437 339.115 131.312 348.411L102.44 353.385C101.21 337.807 104.709 324.752 112.936 314.218C121.227 303.673 133.585 296.986 150.01 294.157C161.687 292.146 172.396 293.142 182.136 297.145C191.929 301.074 200.084 307.762 206.6 317.209C213.105 326.593 217.529 338.086 219.872 351.687L221.447 360.83C225.005 381.489 222.664 398.772 214.423 412.677C206.236 426.507 193.159 434.97 175.195 438.064C158.642 440.915 144.609 438.84 133.097 431.839C121.639 424.762 114.087 413.907 110.444 399.274L139.315 394.301ZM285.468 377.549L274.304 379.472L280.918 417.871L253.105 422.662L235.169 318.531L262.982 313.741L269.729 352.91L279.641 351.202L295.607 308.121L330.734 302.07L305.203 357.502L351.847 405.654L314.795 412.036L285.468 377.549ZM343.29 352.526C341.511 342.197 341.914 332.647 344.499 323.878C347.084 315.109 351.717 307.87 358.397 302.161C365.141 296.441 373.453 292.73 383.334 291.028C397.385 288.607 409.578 290.933 419.913 298.006C430.312 305.067 437.295 315.887 440.864 330.467L442.283 337.556C445.035 353.531 442.786 367.131 435.537 378.356C428.276 389.516 417.139 396.389 402.126 398.975C387.113 401.561 374.286 398.815 363.646 390.739C353.07 382.651 346.357 370.331 343.505 353.778L343.29 352.526ZM371.451 349.757C373.153 359.637 376.318 366.887 380.945 371.508C385.562 376.063 391.334 377.745 398.264 376.551C405 375.391 409.819 371.918 412.721 366.133C415.611 360.284 416.078 351.682 414.122 340.326C412.453 330.637 409.267 323.457 404.565 318.784C399.862 314.11 394.078 312.365 387.213 313.548C380.412 314.719 375.61 318.288 372.806 324.254C369.991 330.156 369.539 338.657 371.451 349.757Z" />
<path d="M186 271L361 240"  stroke-width="10"/>
<path d="M322.917 100.438C311.444 111.932 305 127.509 305 143.75C305 159.991 311.444 175.568 322.917 187.063C334.904 199.05 350.567 205 366.229 205C381.892 205 397.554 199.05 409.542 187.063C439.992 156.613 444.979 65 444.979 65C444.979 65 353.367 69.9875 322.917 100.438ZM397.204 174.725C388.892 182.95 377.954 187.5 366.229 187.5C358.442 187.5 351.092 185.313 344.529 181.55C352.579 156.35 367.454 134.212 387.229 117.5C364.217 129.4 344.879 147.775 331.492 170C318.542 152.85 319.679 128.438 335.342 112.775C350.567 97.55 392.829 88.1875 425.729 84.25C421.792 117.15 412.429 159.413 397.204 174.725Z" />
<path d="M103.781 193.547C106.274 202.422 110.127 208.432 115.339 211.577C120.54 214.659 127.398 215.416 135.914 213.85C145.326 212.119 151.734 207.729 155.138 200.682C158.53 193.571 159.453 183.836 157.908 171.477L113.728 179.603L109.435 156.264L153.519 148.155C150.454 135.811 145.935 127.077 139.962 121.953C134.04 116.753 126.598 114.978 117.634 116.627C108.926 118.229 102.777 121.511 99.1888 126.474C95.5885 131.373 94.2783 138.465 95.2582 147.751L66.4447 153.051C65.0385 137.488 68.389 124.394 76.4963 113.768C84.6675 103.13 96.949 96.3031 113.341 93.288C124.994 91.1445 135.713 92.0192 145.498 95.9123C155.336 99.7295 163.566 106.325 170.188 115.698C176.799 125.007 181.353 136.449 183.85 150.023L185.528 159.148C189.321 179.765 187.175 197.073 179.092 211.071C171.062 224.993 158.082 233.603 140.154 236.901C123.634 239.939 109.579 238.023 97.9887 231.152C86.4505 224.206 78.7768 213.437 74.9677 198.847L103.781 193.547ZM249.734 175.14L238.593 177.189L245.642 215.511L217.885 220.617L198.77 116.696L226.527 111.591L233.717 150.681L243.61 148.861L259.086 105.602L294.143 99.1533L269.241 154.87L316.427 202.491L279.45 209.293L249.734 175.14Z" />
</svg>
