<svg width="35" height="35" viewBox="0 0 35 35" fill="none" xmlns="http://www.w3.org/2000/svg">
<path d="M11.1364 31.8182H4.77273C4.35079 31.8182 3.94614 31.6506 3.64778 31.3522C3.34943 31.0539 3.18182 30.6492 3.18182 30.2273V23.8636C3.18182 23.4417 3.0142 23.037 2.71585 22.7387C2.4175 22.4403 2.01284 22.2727 1.59091 22.2727C1.16897 22.2727 0.76432 22.4403 0.465966 22.7387C0.167613 23.037 0 23.4417 0 23.8636V30.2273C0 31.4931 0.502839 32.707 1.3979 33.6021C2.29296 34.4972 3.50692 35 4.77273 35H11.1364C11.5583 35 11.963 34.8324 12.2613 34.534C12.5597 34.2357 12.7273 33.831 12.7273 33.4091C12.7273 32.9872 12.5597 32.5825 12.2613 32.2841C11.963 31.9858 11.5583 31.8182 11.1364 31.8182ZM33.4091 22.2727C32.9872 22.2727 32.5825 22.4403 32.2841 22.7387C31.9858 23.037 31.8182 23.4417 31.8182 23.8636V30.2273C31.8182 30.6492 31.6506 31.0539 31.3522 31.3522C31.0539 31.6506 30.6492 31.8182 30.2273 31.8182H23.8636C23.4417 31.8182 23.037 31.9858 22.7387 32.2841C22.4403 32.5825 22.2727 32.9872 22.2727 33.4091C22.2727 33.831 22.4403 34.2357 22.7387 34.534C23.037 34.8324 23.4417 35 23.8636 35H30.2273C31.4931 35 32.707 34.4972 33.6021 33.6021C34.4972 32.707 35 31.4931 35 30.2273V23.8636C35 23.4417 34.8324 23.037 34.534 22.7387C34.2357 22.4403 33.831 22.2727 33.4091 22.2727ZM30.2273 0H23.8636C23.4417 0 23.037 0.167613 22.7387 0.465966C22.4403 0.76432 22.2727 1.16897 22.2727 1.59091C22.2727 2.01284 22.4403 2.4175 22.7387 2.71585C23.037 3.0142 23.4417 3.18182 23.8636 3.18182H30.2273C30.6492 3.18182 31.0539 3.34943 31.3522 3.64778C31.6506 3.94614 31.8182 4.35079 31.8182 4.77273V11.1364C31.8182 11.5583 31.9858 11.963 32.2841 12.2613C32.5825 12.5597 32.9872 12.7273 33.4091 12.7273C33.831 12.7273 34.2357 12.5597 34.534 12.2613C34.8324 11.963 35 11.5583 35 11.1364V4.77273C35 3.50692 34.4972 2.29296 33.6021 1.3979C32.707 0.502839 31.4931 0 30.2273 0ZM1.59091 12.7273C2.01284 12.7273 2.4175 12.5597 2.71585 12.2613C3.0142 11.963 3.18182 11.5583 3.18182 11.1364V4.77273C3.18182 4.35079 3.34943 3.94614 3.64778 3.64778C3.94614 3.34943 4.35079 3.18182 4.77273 3.18182H11.1364C11.5583 3.18182 11.963 3.0142 12.2613 2.71585C12.5597 2.4175 12.7273 2.01284 12.7273 1.59091C12.7273 1.16897 12.5597 0.76432 12.2613 0.465966C11.963 0.167613 11.5583 0 11.1364 0H4.77273C3.50692 0 2.29296 0.502839 1.3979 1.3979C0.502839 2.29296 0 3.50692 0 4.77273V11.1364C0 11.5583 0.167613 11.963 0.465966 12.2613C0.76432 12.5597 1.16897 12.7273 1.59091 12.7273ZM14.3182 6.36364H7.95455C7.53261 6.36364 7.12796 6.53125 6.8296 6.8296C6.53125 7.12796 6.36364 7.53261 6.36364 7.95455V14.3182C6.36364 14.7401 6.53125 15.1448 6.8296 15.4431C7.12796 15.7415 7.53261 15.9091 7.95455 15.9091H14.3182C14.7401 15.9091 15.1448 15.7415 15.4431 15.4431C15.7415 15.1448 15.9091 14.7401 15.9091 14.3182V7.95455C15.9091 7.53261 15.7415 7.12796 15.4431 6.8296C15.1448 6.53125 14.7401 6.36364 14.3182 6.36364ZM12.7273 12.7273H9.54545V9.54545H12.7273V12.7273ZM20.6818 15.9091H27.0455C27.4674 15.9091 27.872 15.7415 28.1704 15.4431C28.4688 15.1448 28.6364 14.7401 28.6364 14.3182V7.95455C28.6364 7.53261 28.4688 7.12796 28.1704 6.8296C27.872 6.53125 27.4674 6.36364 27.0455 6.36364H20.6818C20.2599 6.36364 19.8552 6.53125 19.5569 6.8296C19.2585 7.12796 19.0909 7.53261 19.0909 7.95455V14.3182C19.0909 14.7401 19.2585 15.1448 19.5569 15.4431C19.8552 15.7415 20.2599 15.9091 20.6818 15.9091ZM22.2727 9.54545H25.4545V12.7273H22.2727V9.54545ZM14.3182 19.0909H7.95455C7.53261 19.0909 7.12796 19.2585 6.8296 19.5569C6.53125 19.8552 6.36364 20.2599 6.36364 20.6818V27.0455C6.36364 27.4674 6.53125 27.872 6.8296 28.1704C7.12796 28.4688 7.53261 28.6364 7.95455 28.6364H14.3182C14.7401 28.6364 15.1448 28.4688 15.4431 28.1704C15.7415 27.872 15.9091 27.4674 15.9091 27.0455V20.6818C15.9091 20.2599 15.7415 19.8552 15.4431 19.5569C15.1448 19.2585 14.7401 19.0909 14.3182 19.0909ZM12.7273 25.4545H9.54545V22.2727H12.7273V25.4545ZM20.6818 23.8636C21.1038 23.8636 21.5084 23.696 21.8068 23.3977C22.1051 23.0993 22.2727 22.6947 22.2727 22.2727C22.6947 22.2727 23.0993 22.1051 23.3977 21.8068C23.696 21.5084 23.8636 21.1038 23.8636 20.6818C23.8636 20.2599 23.696 19.8552 23.3977 19.5569C23.0993 19.2585 22.6947 19.0909 22.2727 19.0909H20.6818C20.2599 19.0909 19.8552 19.2585 19.5569 19.5569C19.2585 19.8552 19.0909 20.2599 19.0909 20.6818V22.2727C19.0909 22.6947 19.2585 23.0993 19.5569 23.3977C19.8552 23.696 20.2599 23.8636 20.6818 23.8636ZM27.0455 19.0909C26.6235 19.0909 26.2189 19.2585 25.9205 19.5569C25.6222 19.8552 25.4545 20.2599 25.4545 20.6818V25.4545C25.0326 25.4545 24.628 25.6222 24.3296 25.9205C24.0312 26.2189 23.8636 26.6235 23.8636 27.0455C23.8636 27.4674 24.0312 27.872 24.3296 28.1704C24.628 28.4688 25.0326 28.6364 25.4545 28.6364H27.0455C27.4674 28.6364 27.872 28.4688 28.1704 28.1704C28.4688 27.872 28.6364 27.4674 28.6364 27.0455V20.6818C28.6364 20.2599 28.4688 19.8552 28.1704 19.5569C27.872 19.2585 27.4674 19.0909 27.0455 19.0909ZM20.6818 25.4545C20.3672 25.4545 20.0596 25.5479 19.798 25.7227C19.5363 25.8975 19.3324 26.1459 19.212 26.4366C19.0916 26.7273 19.0601 27.0472 19.1215 27.3558C19.1829 27.6644 19.3344 27.9479 19.5569 28.1704C19.7794 28.3929 20.0628 28.5444 20.3714 28.6058C20.6801 28.6672 20.9999 28.6357 21.2906 28.5153C21.5813 28.3949 21.8298 28.1909 22.0046 27.9293C22.1794 27.6677 22.2727 27.3601 22.2727 27.0455C22.2727 26.6235 22.1051 26.2189 21.8068 25.9205C21.5084 25.6222 21.1038 25.4545 20.6818 25.4545Z" fill="#939393"/>
</svg>
