<svg width="20" height="20" viewBox="0 0 20 24" fill="none" xmlns="http://www.w3.org/2000/svg">
<path d="M15.7929 3.29289L14 5.08579L12.2071 3.29289L11.1348 2.22054L10.5715 3.62861L9.62045 6.00628L6.6644 5.51361L5.28345 5.28345L5.51361 6.6644L6.00628 9.62045L3.62861 10.5715L2.22054 11.1348L3.29289 12.2071L5.08579 14L3.29289 15.7929L2.22054 16.8652L3.62861 17.4285L6.00628 18.3795L5.51361 21.3356L5.28345 22.7166L6.6644 22.4864L9.62045 21.9937L10.5715 24.3714L11.1348 25.7795L12.2071 24.7071L14 22.9142L15.7929 24.7071L16.8652 25.7795L17.4285 24.3714L18.3795 21.9937L21.3356 22.4864L22.7166 22.7166L22.4864 21.3356L21.9937 18.3795L24.3714 17.4285L25.7795 16.8652L24.7071 15.7929L22.9142 14L24.7071 12.2071L25.7795 11.1348L24.3714 10.5715L21.9937 9.62045L22.4864 6.6644L22.7166 5.28345L21.3356 5.51361L18.3795 6.00628L17.4285 3.62861L16.8652 2.22054L15.7929 3.29289Z" />
</svg>
