<svg width="20" height="20" viewBox="0 0 20 24" fill="none" xmlns="http://www.w3.org/2000/svg">
<path d="M12.5 2.08331C6.85317 2.08331 2.08337 6.85311 2.08337 12.5C2.08337 15.8219 3.74171 18.8312 6.25004 20.7541V20.8333H6.35629C8.09379 22.1302 10.2219 22.9166 12.5 22.9166C14.7782 22.9166 16.9063 22.1302 18.6438 20.8333H18.75V20.7541C21.2584 18.8312 22.9167 15.8229 22.9167 12.5C22.9167 6.85311 18.1469 2.08331 12.5 2.08331ZM8.41046 19.7156C8.56396 19.0212 8.94956 18.3999 9.50365 17.9541C10.0577 17.5084 10.7472 17.2648 11.4584 17.2635H13.5417C14.2528 17.265 14.9422 17.5086 15.4962 17.9544C16.0503 18.4001 16.4359 19.0213 16.5896 19.7156C15.373 20.4208 13.975 20.8333 12.5 20.8333C11.025 20.8333 9.62712 20.4208 8.41046 19.7156ZM18.3438 18.376C17.9465 17.4301 17.2789 16.6223 16.4248 16.0538C15.5706 15.4854 14.5677 15.1815 13.5417 15.1802H11.4584C10.4323 15.1815 9.42949 15.4854 8.57532 16.0538C7.72116 16.6223 7.05363 17.4301 6.65629 18.376C5.12817 16.8562 4.16671 14.7666 4.16671 12.5C4.16671 7.98227 7.98233 4.16665 12.5 4.16665C17.0177 4.16665 20.8334 7.98227 20.8334 12.5C20.8334 14.7666 19.8719 16.8562 18.3438 18.376Z"   />
<path d="M12.5 6.25C10.125 6.25 8.33337 8.04167 8.33337 10.4167C8.33337 12.7917 10.125 14.5833 12.5 14.5833C14.875 14.5833 16.6667 12.7917 16.6667 10.4167C16.6667 8.04167 14.875 6.25 12.5 6.25ZM12.5 12.5C11.273 12.5 10.4167 11.6437 10.4167 10.4167C10.4167 9.18958 11.273 8.33333 12.5 8.33333C13.7271 8.33333 14.5834 9.18958 14.5834 10.4167C14.5834 11.6437 13.7271 12.5 12.5 12.5Z"   />
</svg>
